<svg width="36" height="32" viewBox="0 0 36 32" fill="none" xmlns="http://www.w3.org/2000/svg">
<path d="M20 21H21.333V22.333H22.667V23.667H26.667V22.333H28V21H29.333V22.333H30.667V23.667H29.333V25H28V26.333H25.333V27.667H22.667V29H13.333V27.667H10.667V26.333H8V25H6.66699V23.667H5.33301V22.333H8V23.667H9.33301V25H12V23.667H13.333V22.333H14.667V21H16V19.667H20V21ZM21.333 26.333H17.333V27.667H21.333V26.333H22.667V25H21.333V26.333ZM16 23.667H17.333V25H18.667V23.667H20V22.333H16V23.667ZM26.667 2.33301H29.333V3.66699H30.667V5H32V7.66699H33.333V11.667H34.667V13H36V21H34.667V22.333H30.667V11.667H32V9H30.667V6.33301H29.333V5H28V3.66699H25.333V2.33301H10.667V3.66699H8V5H6.66699V6.33301H5.33301V9H4V11.667H5.33301V22.333H1.33301V21H0V13H1.33301V11.667H2.66699V7.66699H4V5H5.33301V3.66699H6.66699V2.33301H9.33301V1H26.667V2.33301ZM14.667 19.667H10.667V18.333H14.667V19.667ZM25.333 19.667H21.333V18.333H25.333V19.667ZM10.667 7.66699H12V9H13.333V7.66699H22.667V9H24V7.66699H25.333V6.33301H28V7.66699H26.667V9H25.333V11.667H26.667V13H28V7.66699H29.333V18.333H28V17H26.667V15.667H25.333V14.333H21.333V15.667H20V17H17.333V15.667H16V14.333H14.667V13H13.333V11.667H12V13H10.667V14.333H9.33301V15.667H8V18.333H6.66699V7.66699H8V6.33301H10.667V7.66699ZM8 13H9.33301V11.667H10.667V9H9.33301V7.66699H8V13Z" fill="white"/>
</svg>
