<svg width="18" height="18" viewBox="0 0 18 18" fill="none" xmlns="http://www.w3.org/2000/svg">
<rect x="12" y="10.5" width="1.5" height="1.5" transform="rotate(90 12 10.5)" fill="white"/>
<rect x="10.5" y="9" width="1.5" height="3" transform="rotate(90 10.5 9)" fill="white"/>
<rect x="6" y="10.5" width="1.5" height="1.5" transform="rotate(90 6 10.5)" fill="white"/>
<rect x="7.5" y="10.5" width="1.5" height="1.5" transform="rotate(90 7.5 10.5)" fill="white"/>
<rect x="13.5" y="10.5" width="1.5" height="1.5" transform="rotate(90 13.5 10.5)" fill="white"/>
<rect x="15" y="12" width="1.5" height="1.5" transform="rotate(90 15 12)" fill="white"/>
<rect x="4.5" y="12" width="1.5" height="1.5" transform="rotate(90 4.5 12)" fill="white"/>
<rect x="4.5" y="7.5" width="1.5" height="1.5" transform="rotate(90 4.5 7.5)" fill="white"/>
<rect x="7.5" y="6" width="1.5" height="1.5" transform="rotate(90 7.5 6)" fill="white"/>
<rect x="9.75" y="3" width="2.25" height="1.5" transform="rotate(90 9.75 3)" fill="white"/>
<rect x="12" y="6" width="1.5" height="1.5" transform="rotate(90 12 6)" fill="white"/>
<rect x="15" y="7.5" width="1.5" height="1.5" transform="rotate(90 15 7.5)" fill="white"/>
<rect x="16.5" y="6" width="1.5" height="1.5" transform="rotate(90 16.5 6)" fill="white"/>
<rect x="13.5" y="4.5" width="1.5" height="1.5" transform="rotate(90 13.5 4.5)" fill="white"/>
<rect x="6" y="4.5" width="1.5" height="1.5" transform="rotate(90 6 4.5)" fill="white"/>
<rect x="3" y="6" width="1.5" height="1.5" transform="rotate(90 3 6)" fill="white"/>
<rect x="16.5" y="13.5" width="1.5" height="15" transform="rotate(90 16.5 13.5)" fill="white"/>
</svg>
