<svg width="203" height="32" viewBox="0 0 203 32" fill="none" xmlns="http://www.w3.org/2000/svg">
<path d="M60.6664 13.8414C60.6664 14.2603 61.006 14.5999 61.4249 14.5999C61.8438 14.5999 62.1834 14.9395 62.1834 15.3584V18.392C62.1834 18.8107 62.5229 19.1501 62.9416 19.1501C63.3603 19.1501 63.6997 18.8107 63.6997 18.392V15.3584C63.6997 14.9395 64.0393 14.5999 64.4582 14.5999C64.8771 14.5999 65.2167 14.2603 65.2167 13.8414V13.0832C65.2167 12.2456 65.8957 11.5666 66.7334 11.5666C67.571 11.5666 68.25 12.2456 68.25 13.0832V13.8414C68.25 14.2603 67.9104 14.5999 67.4915 14.5999C67.0726 14.5999 66.733 14.9395 66.733 15.3584V18.392C66.733 18.8107 66.3936 19.1501 65.9749 19.1501C65.5561 19.1501 65.2167 19.4896 65.2167 19.9083V22.9412C65.2167 23.3601 64.8771 23.6997 64.4582 23.6997C64.0393 23.6997 63.6997 24.0393 63.6997 24.4582V26.7334C63.6997 27.571 63.0207 28.25 62.1831 28.25C61.3455 28.25 60.6664 27.571 60.6664 26.7334V19.9083C60.6664 19.4896 60.327 19.1501 59.9083 19.1501C59.4896 19.1501 59.1501 18.8107 59.1501 18.392V15.3584C59.1501 14.9395 58.8106 14.5999 58.3916 14.5999C57.9727 14.5999 57.6331 14.2603 57.6331 13.8414V13.0832C57.6331 12.2456 58.3122 11.5666 59.1498 11.5666C59.9874 11.5666 60.6664 12.2456 60.6664 13.0832V13.8414Z" fill="white"/>
<path d="M106.925 26.733C107.344 26.733 107.683 26.3934 107.683 25.9745V21.4249C107.683 21.006 107.344 20.6664 106.925 20.6664C106.506 20.6664 106.166 20.3268 106.166 19.9079V16.875C106.166 16.4563 105.827 16.1169 105.408 16.1169C104.99 16.1169 104.65 15.7774 104.65 15.3587V13.0832C104.65 12.2456 105.329 11.5666 106.167 11.5666C107.004 11.5666 107.683 12.2456 107.683 13.0832V15.3587C107.683 15.7774 108.023 16.1169 108.442 16.1169C108.86 16.1169 109.2 16.4563 109.2 16.875V18.3916C109.2 18.8105 109.539 19.1501 109.958 19.1501C110.377 19.1501 110.717 18.8105 110.717 18.3916V15.358C110.717 14.9393 111.056 14.5999 111.475 14.5999C111.894 14.5999 112.233 14.2604 112.233 13.8417V13.0832C112.233 12.2456 112.912 11.5666 113.75 11.5666H116.025C117.282 11.5666 118.3 10.5481 118.3 9.29178V8.53363C118.3 7.69602 118.979 7.01699 119.817 7.01699C120.655 7.01699 121.334 7.69602 121.334 8.53363V10.0499C121.334 10.8875 122.013 11.5666 122.85 11.5666C123.688 11.5666 124.367 12.2456 124.367 13.0832C124.367 13.9208 123.688 14.5999 122.85 14.5999C122.013 14.5999 121.334 15.2789 121.334 16.1165V19.1498C121.334 19.9874 122.013 20.6664 122.85 20.6664C123.688 20.6664 124.367 21.3455 124.367 22.1831C124.367 23.0207 123.688 23.6997 122.85 23.6997H120.575C120.156 23.6997 119.817 23.3603 119.817 22.9416C119.817 22.5229 119.477 22.1834 119.058 22.1834C118.64 22.1834 118.3 21.844 118.3 21.4253V16.875C118.3 15.6185 117.282 14.5999 116.025 14.5999H115.267C114.429 14.5999 113.75 15.2789 113.75 16.1165V16.8747C113.75 17.2936 113.41 17.6331 112.991 17.6331C112.573 17.6331 112.233 17.9727 112.233 18.3916V21.4253C112.233 21.844 111.894 22.1834 111.475 22.1834C111.056 22.1834 110.717 22.5229 110.717 22.9416V25.9745C110.717 26.3934 110.377 26.733 109.958 26.733C109.539 26.733 109.2 27.0726 109.2 27.4915C109.2 27.9104 108.86 28.25 108.441 28.25H106.925C106.506 28.25 106.166 27.9104 106.166 27.4915C106.166 27.0726 106.506 26.733 106.925 26.733Z" fill="white"/>
<path fill-rule="evenodd" clip-rule="evenodd" d="M12.1331 9.29178C12.1331 9.71069 12.4727 10.0503 12.8916 10.0503C13.3105 10.0503 13.6501 10.3899 13.6501 10.8088V13.8414C13.6501 14.2603 13.3105 14.5999 12.8916 14.5999C12.4727 14.5999 12.1331 14.9395 12.1331 15.3584V16.8747C12.1331 17.2936 12.4727 17.6331 12.8916 17.6331C13.3105 17.6331 13.6501 17.9727 13.6501 18.3916V22.1831C13.6501 23.0207 12.9711 23.6997 12.1335 23.6997C11.2959 23.6997 10.6169 23.0207 10.6169 22.1831V19.9086C10.6169 19.4897 10.2773 19.1501 9.85836 19.1501C9.43945 19.1501 9.09986 18.8105 9.09986 18.3916C9.09986 17.9727 8.76027 17.6331 8.34137 17.6331H6.82507C5.56874 17.6331 4.55028 18.6516 4.55028 19.9079V21.4246C4.55028 22.6811 3.53166 23.6997 2.27514 23.6997C1.01861 23.6997 1.74209e-07 22.6811 1.74209e-07 21.4246V13.0836V7.01699H6.06657H10.6165C11.4541 7.01699 12.1331 7.69602 12.1331 8.53363V9.29178ZM4.55028 12.3251C4.55028 13.5814 5.56874 14.5999 6.82507 14.5999H8.34171C8.76043 14.5999 9.09986 14.2604 9.09986 13.8417C9.09986 13.423 9.43947 13.0836 9.85818 13.0836C10.2771 13.0836 10.6169 12.744 10.6169 12.3251V11.5669C10.6169 10.7293 9.93783 10.0503 9.10021 10.0503H6.82507C5.56874 10.0503 4.55028 11.0687 4.55028 12.3251Z" fill="white"/>
<path fill-rule="evenodd" clip-rule="evenodd" d="M24.267 12.3252C24.267 12.744 24.6064 13.0836 25.0251 13.0836C25.4439 13.0836 25.7833 13.423 25.7833 13.8417C25.7833 14.2604 26.1229 14.5999 26.5416 14.5999C26.9605 14.5999 27.3003 14.9395 27.3003 15.3584V16.1165C27.3003 16.9541 26.6213 17.6331 25.7836 17.6331H19.7164C18.8787 17.6331 18.1997 18.3122 18.1997 19.1498C18.1997 19.9874 18.8787 20.6664 19.7164 20.6664H23.5088C23.9276 20.6664 24.267 20.327 24.267 19.9083C24.267 19.4896 24.6064 19.1501 25.0251 19.1501H26.5421C26.9608 19.1501 27.3003 19.4896 27.3003 19.9083C27.3003 20.327 26.9607 20.6664 26.542 20.6664C26.1231 20.6664 25.7833 21.006 25.7833 21.4249V22.1831C25.7833 23.0207 25.1043 23.6997 24.2666 23.6997H18.9579C18.5392 23.6997 18.1997 23.3603 18.1997 22.9416C18.1997 22.5229 17.8603 22.1834 17.4416 22.1834C17.0229 22.1834 16.6834 21.8438 16.6834 21.4251C16.6834 21.0062 16.3438 20.6664 15.9249 20.6664C15.506 20.6664 15.1664 20.3268 15.1664 19.9079V15.3584C15.1664 14.9395 15.5062 14.5999 15.9251 14.5999C16.3438 14.5999 16.6834 14.2604 16.6834 13.8417C16.6834 13.423 17.0229 13.0836 17.4416 13.0836C17.8603 13.0836 18.1997 12.744 18.1997 12.3252C18.1997 11.9063 18.5393 11.5666 18.9582 11.5666H23.5085C23.9274 11.5666 24.267 11.9063 24.267 12.3252ZM19.7167 13.8417C19.7167 14.2604 19.3771 14.5999 18.9584 14.5999C18.5395 14.5999 18.1997 14.9395 18.1997 15.3584C18.1997 15.7773 18.5393 16.1169 18.9582 16.1169H23.5085C23.9274 16.1169 24.267 15.7773 24.267 15.3584C24.267 14.9395 23.9272 14.5999 23.5083 14.5999C23.0896 14.5999 22.75 14.2604 22.75 13.8417C22.75 13.423 22.4106 13.0836 21.9918 13.0836H20.4749C20.0561 13.0836 19.7167 13.423 19.7167 13.8417Z" fill="white"/>
<path d="M31.8499 12.3251C31.8499 12.744 32.1895 13.0836 32.6084 13.0836C33.0273 13.0836 33.3669 12.744 33.3669 12.3251C33.3669 11.9062 33.7064 11.5666 34.1254 11.5666H38.6749C39.0938 11.5666 39.4334 11.9063 39.4334 12.3252C39.4334 12.744 39.7729 13.0836 40.1916 13.0836C40.6103 13.0836 40.9497 13.423 40.9497 13.8417V22.1831C40.9497 23.0207 40.2707 23.6997 39.4331 23.6997C38.5955 23.6997 37.9164 23.0207 37.9164 22.1831V16.8747C37.9164 15.6183 36.898 14.5999 35.6416 14.5999H34.1254C33.7064 14.5999 33.3669 14.9395 33.3669 15.3584C33.3669 15.7773 33.0273 16.1169 32.6084 16.1169C32.1895 16.1169 31.8499 16.4564 31.8499 16.8753V22.1831C31.8499 23.0207 31.1708 23.6997 30.3332 23.6997C29.4956 23.6997 28.8166 23.0207 28.8166 22.1831V13.0832C28.8166 12.2456 29.4956 11.5666 30.3332 11.5666H31.0914C31.5103 11.5666 31.8499 11.9062 31.8499 12.3251Z" fill="white"/>
<path fill-rule="evenodd" clip-rule="evenodd" d="M56.1169 22.1831C56.1169 23.0207 55.4378 23.6997 54.6002 23.6997H53.8417C53.423 23.6997 53.0836 23.3603 53.0836 22.9416C53.0836 22.5229 52.7438 22.1834 52.3251 22.1834C51.9064 22.1834 51.5666 22.5229 51.5666 22.9416C51.5666 23.3603 51.2271 23.6997 50.8084 23.6997H46.2581C45.8394 23.6997 45.5 23.3603 45.5 22.9416C45.5 22.5229 45.1604 22.1834 44.7417 22.1834C44.3228 22.1834 43.983 21.8438 43.983 21.4249V19.9083C43.983 19.4896 43.6436 19.1501 43.2249 19.1501C42.8061 19.1501 42.4667 18.8107 42.4667 18.392V16.875C42.4667 16.4563 42.8061 16.1169 43.2249 16.1169C43.6436 16.1169 43.983 15.7774 43.983 15.3587V13.8421C43.983 13.4232 44.3226 13.0836 44.7415 13.0836C45.1604 13.0836 45.5 12.744 45.5 12.3251C45.5 11.9062 45.8396 11.5666 46.2585 11.5666H50.8081C51.227 11.5666 51.5666 11.9062 51.5666 12.3251C51.5666 12.744 51.9062 13.0836 52.3251 13.0836C52.744 13.0836 53.0836 12.744 53.0836 12.3251V7.01664C53.0836 6.17902 53.7626 5.5 54.6002 5.5C55.4378 5.5 56.1169 6.17902 56.1169 7.01664V22.1831ZM47.017 15.3584C47.017 15.7773 46.6774 16.1169 46.2585 16.1169C45.8396 16.1169 45.5 16.4564 45.5 16.8753V18.3916C45.5 18.8105 45.8398 19.1501 46.2587 19.1501C46.6774 19.1501 47.017 19.4896 47.017 19.9083C47.017 20.327 47.3564 20.6664 47.7751 20.6664H50.8084C51.2271 20.6664 51.5666 20.327 51.5666 19.9083C51.5666 19.4896 51.9062 19.1501 52.3249 19.1501C52.7438 19.1501 53.0836 18.8105 53.0836 18.3916V16.8753C53.0836 16.4564 52.744 16.1169 52.3251 16.1169C51.9062 16.1169 51.5666 15.7773 51.5666 15.3584C51.5666 14.9395 51.227 14.5999 50.8081 14.5999H47.7755C47.3566 14.5999 47.017 14.9395 47.017 15.3584Z" fill="white"/>
<path d="M94.0333 8.53329C94.0333 10.2085 95.3913 11.5666 97.0666 11.5666H100.1C100.938 11.5666 101.617 12.2456 101.617 13.0832V13.8417C101.617 14.2604 101.956 14.5999 102.375 14.5999C102.794 14.5999 103.133 14.9393 103.133 15.358V22.1831C103.133 23.0207 102.454 23.6997 101.616 23.6997C100.779 23.6997 100.1 23.0207 100.1 22.1831V16.875C100.1 16.4563 99.7604 16.1169 99.3417 16.1169C98.923 16.1169 98.5836 15.7772 98.5836 15.3585C98.5836 14.9396 98.244 14.5999 97.8251 14.5999H96.3084C95.0519 14.5999 94.0333 15.6185 94.0333 16.875V22.1831C94.0333 23.0207 93.3542 23.6997 92.5166 23.6997C91.679 23.6997 91 23.0207 91 22.1831V7.01664C91 6.17902 91.679 5.5 92.5166 5.5C93.3542 5.5 94.0333 6.17902 94.0333 7.01664V8.53329Z" fill="white"/>
<path d="M130.433 8.53329C130.433 10.2085 131.791 11.5666 133.467 11.5666H135.742C136.16 11.5666 136.5 11.9062 136.5 12.3251C136.5 12.744 136.84 13.0836 137.258 13.0836C137.677 13.0836 138.017 13.4232 138.017 13.8421V22.1827C138.017 23.0205 137.338 23.6997 136.5 23.6997C135.662 23.6997 134.983 23.0205 134.983 22.1827V16.8747C134.983 15.6183 133.965 14.5999 132.708 14.5999C131.452 14.5999 130.433 15.6183 130.433 16.8747V22.1831C130.433 23.0207 129.754 23.6997 128.917 23.6997C128.079 23.6997 127.4 23.0207 127.4 22.1831V7.01664C127.4 6.17902 128.079 5.5 128.917 5.5C129.754 5.5 130.433 6.17902 130.433 7.01664V8.53329Z" fill="white"/>
<path d="M150.15 12.3252C150.15 12.744 150.49 13.0836 150.908 13.0836C151.327 13.0836 151.666 12.744 151.666 12.3252C151.666 11.9063 152.006 11.5666 152.425 11.5666H156.975C157.393 11.5666 157.733 11.9062 157.733 12.3251C157.733 12.744 158.073 13.0836 158.492 13.0836C158.91 13.0836 159.25 13.4232 159.25 13.8421V22.1831C159.25 23.0207 158.571 23.6997 157.733 23.6997C156.896 23.6997 156.217 23.0207 156.217 22.1831V16.875C156.217 15.6185 155.198 14.5999 153.942 14.5999C152.685 14.5999 151.666 15.6185 151.666 16.875V22.1831C151.666 23.0207 150.987 23.6997 150.15 23.6997C149.312 23.6997 148.633 23.0207 148.633 22.1831V16.8747C148.633 15.6183 147.615 14.5999 146.358 14.5999C145.102 14.5999 144.084 15.6183 144.084 16.8747V22.1831C144.084 23.0207 143.405 23.6997 142.567 23.6997C141.729 23.6997 141.05 23.0207 141.05 22.1831V16.1165C141.05 13.6036 143.087 11.5666 145.6 11.5666H149.392C149.811 11.5666 150.15 11.9063 150.15 12.3252Z" fill="white"/>
<path fill-rule="evenodd" clip-rule="evenodd" d="M165.317 12.3251C165.317 12.744 165.656 13.0836 166.075 13.0836C166.494 13.0836 166.834 12.744 166.834 12.3251C166.834 11.9062 167.173 11.5666 167.592 11.5666H172.142C172.561 11.5666 172.9 11.9063 172.9 12.3252C172.9 12.744 173.24 13.0836 173.658 13.0836C174.077 13.0836 174.416 13.423 174.416 13.8417V21.4253C174.416 21.844 174.077 22.1834 173.658 22.1834C173.24 22.1834 172.9 22.5229 172.9 22.9416C172.9 23.3603 172.561 23.6997 172.142 23.6997H167.592C167.173 23.6997 166.834 23.3603 166.834 22.9416C166.834 22.5229 166.494 22.1834 166.075 22.1834C165.656 22.1834 165.317 22.5229 165.317 22.9416C165.317 23.3603 164.977 23.6997 164.558 23.6997H163.8C162.962 23.6997 162.283 23.0207 162.283 22.1831V7.01664C162.283 6.17902 162.962 5.5 163.8 5.5C164.638 5.5 165.317 6.17902 165.317 7.01664V12.3251ZM165.317 18.3916C165.317 18.8105 165.656 19.1501 166.075 19.1501C166.494 19.1501 166.834 19.4896 166.834 19.9083C166.834 20.327 167.173 20.6664 167.592 20.6664H169.108C170.365 20.6664 171.383 19.648 171.383 18.3916V17.6331C171.383 15.9579 170.025 14.5999 168.35 14.5999H167.592C166.335 14.5999 165.317 15.6185 165.317 16.875V18.3916Z" fill="white"/>
<path fill-rule="evenodd" clip-rule="evenodd" d="M186.55 12.3252C186.55 12.744 186.89 13.0836 187.308 13.0836C187.727 13.0836 188.067 13.423 188.067 13.8417C188.067 14.2604 188.406 14.5999 188.825 14.5999C189.244 14.5999 189.584 14.9395 189.584 15.3584V19.9079C189.584 20.3268 189.244 20.6664 188.825 20.6664C188.406 20.6664 188.067 21.0062 188.067 21.4251C188.067 21.8438 187.727 22.1834 187.308 22.1834C186.89 22.1834 186.55 22.5229 186.55 22.9416C186.55 23.3603 186.211 23.6997 185.792 23.6997H179.725C179.306 23.6997 178.967 23.3603 178.967 22.9416C178.967 22.5229 178.627 22.1834 178.208 22.1834C177.789 22.1834 177.45 21.8438 177.45 21.4249V19.9083C177.45 19.4896 177.11 19.1501 176.692 19.1501C176.273 19.1501 175.933 18.8107 175.933 18.392V16.875C175.933 16.4563 176.273 16.1169 176.692 16.1169C177.11 16.1169 177.45 15.7774 177.45 15.3587V13.8421C177.45 13.4232 177.789 13.0836 178.208 13.0836C178.627 13.0836 178.967 12.744 178.967 12.3251C178.967 11.9062 179.306 11.5666 179.725 11.5666H185.792C186.211 11.5666 186.55 11.9063 186.55 12.3252ZM180.483 15.3585C180.483 15.7772 180.144 16.1169 179.725 16.1169C179.306 16.1169 178.967 16.4563 178.967 16.875V18.392C178.967 18.8107 179.306 19.1501 179.725 19.1501C180.144 19.1501 180.483 19.4896 180.483 19.9083C180.483 20.327 180.822 20.6664 181.241 20.6664H184.275C184.694 20.6664 185.033 20.327 185.033 19.9083C185.033 19.4896 185.373 19.1501 185.792 19.1501C186.211 19.1501 186.55 18.8105 186.55 18.3916V16.8753C186.55 16.4564 186.211 16.1169 185.792 16.1169C185.373 16.1169 185.033 15.7773 185.033 15.3584C185.033 14.9395 184.694 14.5999 184.275 14.5999H181.242C180.823 14.5999 180.483 14.9396 180.483 15.3585Z" fill="white"/>
<path d="M192.617 12.3252C192.617 12.744 192.956 13.0836 193.375 13.0836C193.794 13.0836 194.133 13.423 194.133 13.8417C194.133 14.2604 194.473 14.5999 194.891 14.5999H196.408C196.827 14.5999 197.166 14.2604 197.166 13.8417C197.166 13.423 197.506 13.0836 197.925 13.0836C198.344 13.0836 198.683 12.7438 198.683 12.3249C198.683 11.9062 199.023 11.5666 199.442 11.5666C199.86 11.5666 200.2 11.906 200.2 12.3247V13.8417C200.2 14.2604 199.86 14.5999 199.442 14.5999C199.023 14.5999 198.683 14.9395 198.683 15.3582C198.683 15.7771 198.344 16.1169 197.925 16.1169C197.506 16.1169 197.166 16.4564 197.166 16.8753V18.3916C197.166 18.8105 197.506 19.1501 197.925 19.1501C198.344 19.1501 198.683 19.4896 198.683 19.9083C198.683 20.327 199.023 20.6664 199.442 20.6664C199.86 20.6664 200.2 21.006 200.2 21.4248C200.2 21.8437 200.539 22.1834 200.958 22.1834C201.377 22.1834 201.717 22.5229 201.717 22.9416C201.717 23.3603 201.377 23.6997 200.959 23.6997H199.442C199.023 23.6997 198.683 23.3603 198.683 22.9416C198.683 22.5229 198.344 22.1834 197.925 22.1834C197.506 22.1834 197.166 21.8438 197.166 21.4249C197.166 21.006 196.827 20.6664 196.408 20.6664H194.892C194.473 20.6664 194.133 21.0062 194.133 21.4251C194.133 21.8438 193.794 22.1834 193.375 22.1834C192.956 22.1834 192.617 22.5229 192.617 22.9416C192.617 23.3603 192.277 23.6997 191.859 23.6997H190.342C189.923 23.6997 189.584 23.3603 189.584 22.9416C189.584 22.5229 189.923 22.1834 190.342 22.1834C190.76 22.1834 191.1 21.8438 191.1 21.4251C191.1 21.0062 191.44 20.6664 191.859 20.6664C192.277 20.6664 192.617 20.327 192.617 19.9083C192.617 19.4896 192.956 19.1501 193.375 19.1501C193.794 19.1501 194.133 18.8107 194.133 18.392V16.875C194.133 16.4563 193.794 16.1169 193.375 16.1169C192.956 16.1169 192.617 15.7772 192.617 15.3585C192.617 14.9396 192.277 14.5999 191.858 14.5999C191.439 14.5999 191.1 14.2603 191.1 13.8414V12.3251C191.1 11.9062 191.439 11.5666 191.858 11.5666C192.277 11.5666 192.617 11.9063 192.617 12.3252Z" fill="white"/>
<path fill-rule="evenodd" clip-rule="evenodd" d="M87.3502 9.29178C87.3502 9.71069 87.6898 10.0503 88.1087 10.0503C88.5276 10.0503 88.8672 10.3899 88.8672 10.8088V13.8414C88.8672 14.2603 88.5276 14.5999 88.1087 14.5999C87.6898 14.5999 87.3502 14.9395 87.3502 15.3584V16.8747C87.3502 17.2936 87.6898 17.6331 88.1087 17.6331C88.5276 17.6331 88.8672 17.9727 88.8672 18.3916V22.1831C88.8672 23.0207 88.1882 23.6997 87.3505 23.6997C86.5129 23.6997 85.8339 23.0207 85.8339 22.1831V19.9086C85.8339 19.4897 85.4943 19.1501 85.0754 19.1501C84.6565 19.1501 84.3169 18.8105 84.3169 18.3916C84.3169 17.9727 83.9773 17.6331 83.5584 17.6331H82.0421C80.7858 17.6331 79.7673 18.6516 79.7673 19.9079V21.4246C79.7673 22.6811 78.7487 23.6997 77.4922 23.6997C76.2357 23.6997 75.217 22.6811 75.217 21.4246V13.0836V7.01699H81.2836H85.8336C86.6712 7.01699 87.3502 7.69602 87.3502 8.53363V9.29178ZM79.7673 12.3251C79.7673 13.5814 80.7858 14.5999 82.0421 14.5999H83.5588C83.9775 14.5999 84.3169 14.2604 84.3169 13.8417C84.3169 13.423 84.6565 13.0836 85.0752 13.0836C85.4941 13.0836 85.8339 12.744 85.8339 12.3251V11.5669C85.8339 10.7293 85.1549 10.0503 84.3173 10.0503H82.0421C80.7858 10.0503 79.7673 11.0687 79.7673 12.3251Z" fill="white"/>
</svg>
